<svg width="32" height="32" viewBox="0 0 32 32" fill="none" xmlns="http://www.w3.org/2000/svg">
<path d="M7.99992 26.6663C7.26659 26.6663 6.63881 26.4052 6.11659 25.883C5.59436 25.3608 5.33325 24.733 5.33325 23.9997C5.33325 23.2663 5.59436 22.6386 6.11659 22.1163C6.63881 21.5941 7.26659 21.333 7.99992 21.333C8.73325 21.333 9.36103 21.5941 9.88325 22.1163C10.4055 22.6386 10.6666 23.2663 10.6666 23.9997C10.6666 24.733 10.4055 25.3608 9.88325 25.883C9.36103 26.4052 8.73325 26.6663 7.99992 26.6663ZM15.9999 26.6663C15.2666 26.6663 14.6388 26.4052 14.1166 25.883C13.5944 25.3608 13.3333 24.733 13.3333 23.9997C13.3333 23.2663 13.5944 22.6386 14.1166 22.1163C14.6388 21.5941 15.2666 21.333 15.9999 21.333C16.7333 21.333 17.361 21.5941 17.8833 22.1163C18.4055 22.6386 18.6666 23.2663 18.6666 23.9997C18.6666 24.733 18.4055 25.3608 17.8833 25.883C17.361 26.4052 16.7333 26.6663 15.9999 26.6663ZM23.9999 26.6663C23.2666 26.6663 22.6388 26.4052 22.1166 25.883C21.5944 25.3608 21.3333 24.733 21.3333 23.9997C21.3333 23.2663 21.5944 22.6386 22.1166 22.1163C22.6388 21.5941 23.2666 21.333 23.9999 21.333C24.7333 21.333 25.361 21.5941 25.8833 22.1163C26.4055 22.6386 26.6666 23.2663 26.6666 23.9997C26.6666 24.733 26.4055 25.3608 25.8833 25.883C25.361 26.4052 24.7333 26.6663 23.9999 26.6663ZM7.99992 18.6663C7.26659 18.6663 6.63881 18.4052 6.11659 17.883C5.59436 17.3608 5.33325 16.733 5.33325 15.9997C5.33325 15.2663 5.59436 14.6386 6.11659 14.1163C6.63881 13.5941 7.26659 13.333 7.99992 13.333C8.73325 13.333 9.36103 13.5941 9.88325 14.1163C10.4055 14.6386 10.6666 15.2663 10.6666 15.9997C10.6666 16.733 10.4055 17.3608 9.88325 17.883C9.36103 18.4052 8.73325 18.6663 7.99992 18.6663ZM15.9999 18.6663C15.2666 18.6663 14.6388 18.4052 14.1166 17.883C13.5944 17.3608 13.3333 16.733 13.3333 15.9997C13.3333 15.2663 13.5944 14.6386 14.1166 14.1163C14.6388 13.5941 15.2666 13.333 15.9999 13.333C16.7333 13.333 17.361 13.5941 17.8833 14.1163C18.4055 14.6386 18.6666 15.2663 18.6666 15.9997C18.6666 16.733 18.4055 17.3608 17.8833 17.883C17.361 18.4052 16.7333 18.6663 15.9999 18.6663ZM23.9999 18.6663C23.2666 18.6663 22.6388 18.4052 22.1166 17.883C21.5944 17.3608 21.3333 16.733 21.3333 15.9997C21.3333 15.2663 21.5944 14.6386 22.1166 14.1163C22.6388 13.5941 23.2666 13.333 23.9999 13.333C24.7333 13.333 25.361 13.5941 25.8833 14.1163C26.4055 14.6386 26.6666 15.2663 26.6666 15.9997C26.6666 16.733 26.4055 17.3608 25.8833 17.883C25.361 18.4052 24.7333 18.6663 23.9999 18.6663ZM7.99992 10.6663C7.26659 10.6663 6.63881 10.4052 6.11659 9.88301C5.59436 9.36079 5.33325 8.73301 5.33325 7.99967C5.33325 7.26634 5.59436 6.63856 6.11659 6.11634C6.63881 5.59412 7.26659 5.33301 7.99992 5.33301C8.73325 5.33301 9.36103 5.59412 9.88325 6.11634C10.4055 6.63856 10.6666 7.26634 10.6666 7.99967C10.6666 8.73301 10.4055 9.36079 9.88325 9.88301C9.36103 10.4052 8.73325 10.6663 7.99992 10.6663ZM15.9999 10.6663C15.2666 10.6663 14.6388 10.4052 14.1166 9.88301C13.5944 9.36079 13.3333 8.73301 13.3333 7.99967C13.3333 7.26634 13.5944 6.63856 14.1166 6.11634C14.6388 5.59412 15.2666 5.33301 15.9999 5.33301C16.7333 5.33301 17.361 5.59412 17.8833 6.11634C18.4055 6.63856 18.6666 7.26634 18.6666 7.99967C18.6666 8.73301 18.4055 9.36079 17.8833 9.88301C17.361 10.4052 16.7333 10.6663 15.9999 10.6663ZM23.9999 10.6663C23.2666 10.6663 22.6388 10.4052 22.1166 9.88301C21.5944 9.36079 21.3333 8.73301 21.3333 7.99967C21.3333 7.26634 21.5944 6.63856 22.1166 6.11634C22.6388 5.59412 23.2666 5.33301 23.9999 5.33301C24.7333 5.33301 25.361 5.59412 25.8833 6.11634C26.4055 6.63856 26.6666 7.26634 26.6666 7.99967C26.6666 8.73301 26.4055 9.36079 25.8833 9.88301C25.361 10.4052 24.7333 10.6663 23.9999 10.6663Z" fill="#0073E6"/>
</svg>
