<svg width="60" height="61" viewBox="0 0 60 61" fill="none" xmlns="http://www.w3.org/2000/svg">
<rect y="0.679688" width="60" height="60" rx="4" fill="#0B3EE3"/>
<mask id="mask0_3995_25267" style="mask-type:luminance" maskUnits="userSpaceOnUse" x="15" y="18" width="30" height="26">
<path fill-rule="evenodd" clip-rule="evenodd" d="M18.125 18.1797C19.8509 18.1797 21.25 19.5788 21.25 21.3047C21.25 23.0306 19.8509 24.4297 18.125 24.4297C16.3991 24.4297 15 23.0306 15 21.3047C15 19.5788 16.3991 18.1797 18.125 18.1797ZM44.375 33.1797C44.375 38.7025 39.8978 43.1797 34.8512 43.1797C28.8522 43.1797 24.375 38.7025 24.375 33.1797C24.375 27.6568 28.8522 23.1797 34.8512 23.1797C39.8978 23.1797 44.375 27.6568 44.375 33.1797ZM20.625 30.0547C20.625 28.674 19.5057 27.5547 18.125 27.5547C16.7443 27.5547 15.625 28.674 15.625 30.0547V40.6797C15.625 42.0604 16.7443 43.1797 18.125 43.1797C19.5057 43.1797 20.625 42.0604 20.625 40.6797V30.0547ZM36.8316 32.1301H38.1629V30.8201H36.8412V29.236H35.3949V34.5064C35.3949 35.3391 35.5099 35.9078 35.7493 36.2125C35.9792 36.5273 36.4197 36.6796 37.071 36.6796C37.3201 36.6796 37.6936 36.6187 38.1725 36.507L38.1054 35.2884L37.2817 35.3087C37.1381 35.3087 37.0327 35.2782 36.9657 35.2071C36.8986 35.136 36.8603 35.0548 36.8507 34.9634C36.8412 34.8618 36.8316 34.7095 36.8316 34.476V32.1301ZM32.4737 30.8303V36.5476H33.9199V30.8303H32.4737ZM30.303 30.6881C30.5557 30.6881 30.7696 30.7733 30.9349 30.9435C31.1002 31.1138 31.178 31.3219 31.178 31.5773C31.178 31.8327 31.1002 32.0314 30.9349 32.2016C30.7793 32.353 30.5752 32.4381 30.3127 32.4381C30.0599 32.4381 29.846 32.353 29.6807 32.1827C29.5155 32.0124 29.428 31.8043 29.428 31.5584C29.428 31.3124 29.5155 31.1043 29.671 30.9341C29.8363 30.7638 30.0502 30.6881 30.303 30.6881Z" fill="white"/>
</mask>
<g mask="url(#mask0_3995_25267)">
<rect x="-32.5" y="-31.8203" width="125" height="125" fill="white"/>
</g>
</svg>
