<svg width="24" height="24" viewBox="0 0 24 24" fill="none" xmlns="http://www.w3.org/2000/svg">
<path d="M3 9.04529C3 8.46806 3.46794 8.00012 4.04517 8.00012L9.72025 8.00012C10.2975 8.00012 10.7654 8.46806 10.7654 9.04529L10.7654 12.3068C10.7654 13.2759 10.5953 14.0754 10.255 14.7054C9.92689 15.3353 9.47118 15.8017 8.88786 16.1046C8.30454 16.4074 7.63616 16.5589 6.88271 16.5589C6.12926 16.5589 5.46087 16.4074 4.87755 16.1046C4.29424 15.8017 3.83244 15.3353 3.49218 14.7054C3.16406 14.0754 3 13.2759 3 12.3068L3 9.04529ZM4.73173 9.9263L4.73173 12.2159C4.73172 13.0397 4.92616 13.6393 5.31504 14.0149C5.70392 14.4025 6.22647 14.5964 6.88271 14.5964C7.52679 14.5964 8.04326 14.4025 8.43214 14.0149C8.83317 13.6393 9.03369 13.0397 9.03369 12.2159L9.03369 9.9263L4.73173 9.9263Z" fill="white"/>
<path fill-rule="evenodd" clip-rule="evenodd" d="M11.4785 8H20.3282C20.9054 8 21.3734 8.46794 21.3734 9.04517V12.3066C21.3734 13.2758 21.2031 14.0753 20.8625 14.7053C20.5341 15.3352 20.078 15.8016 19.4942 16.1045C18.9104 16.4073 18.2414 16.5588 17.4873 16.5588C16.7332 16.5588 16.0642 16.4073 15.4804 16.1045C14.8965 15.8016 14.4343 15.3352 14.0938 14.7053C13.7654 14.0753 13.6012 13.2758 13.6012 12.3066V9.92617L11.7655 9.92617V9.0454C11.7655 8.66343 11.6607 8.30592 11.4785 8ZM15.3344 12.2158V9.92617L19.6401 9.92617V12.2158C19.6401 13.0396 19.4394 13.6392 19.0381 14.0148C18.6488 14.4024 18.1319 14.5962 17.4873 14.5962C16.8305 14.5962 16.3075 14.4024 15.9182 14.0148C15.529 13.6392 15.3344 13.0395 15.3344 12.2158Z" fill="white"/>
<ellipse cx="6.85881" cy="12.0601" rx="1.07827" ry="1.07313" fill="white"/>
<ellipse cx="17.3521" cy="12.0601" rx="1.07827" ry="1.07313" fill="white"/>
</svg>
