<svg width="39" height="24" viewBox="0 0 39 24" fill="none" xmlns="http://www.w3.org/2000/svg">
<path d="M13.0797 1.95744L12.7393 1.95744L12.7393 2.29785L12.7393 5.97512L12.7393 6.31553L13.0797 6.31553L22.2375 6.31553L22.2375 10.5197C22.2375 12.4055 22.5551 13.9902 23.2117 15.2557L23.2117 15.2557L23.2141 15.2602C23.8904 16.5172 24.8158 17.4594 25.9911 18.072C27.1556 18.679 28.482 18.9778 29.9616 18.9778C31.4412 18.9778 32.7676 18.679 33.9321 18.072C35.1079 17.4592 36.0223 16.5161 36.6756 15.258C37.3563 13.9917 37.6856 12.406 37.6856 10.5197L37.6856 4.49272C37.6856 3.09253 36.5505 1.95744 35.1503 1.95744L13.0797 1.95744ZM27.2212 13.54L27.2212 13.54L27.2173 13.5363C26.5718 12.9104 26.2115 11.8746 26.2115 10.3462L26.2115 6.31553L33.7116 6.31553L33.7116 10.3462C33.7116 11.872 33.3411 12.9064 32.6749 13.5326L32.6748 13.5325L32.6673 13.54C32.0025 14.2054 31.1127 14.5504 29.9616 14.5504C28.7853 14.5504 27.8848 14.2041 27.2212 13.54Z" fill="#0066CC" stroke="white" stroke-width="0.680816"/>
<path d="M2.48287 15.5592L2.48633 15.5658L2.48988 15.5724C3.22212 16.9345 4.23801 17.9773 5.54039 18.6568C6.811 19.3196 8.24366 19.6374 9.81274 19.6374C11.3818 19.6374 12.8145 19.3196 14.0851 18.6568C15.3889 17.9766 16.395 16.9316 17.1045 15.5658C17.8496 14.1763 18.1899 12.4759 18.1899 10.5197L18.1899 4.49272C18.1899 2.72824 16.7595 1.29785 14.9951 1.29785L4.63041 1.29785C2.86593 1.29785 1.43554 2.72824 1.43554 4.49272L1.43554 10.5197C1.43554 12.4744 1.76377 14.172 2.48287 15.5592ZM7.54183 13.0741L7.53623 13.0685L7.53053 13.063C7.06761 12.6138 6.72584 11.7891 6.72584 10.3462L6.72584 6.97513L12.8996 6.97513L12.8996 10.3462C12.8996 11.7814 12.5502 12.6019 12.0714 13.0524L12.06 13.0631L12.049 13.0741C11.5296 13.5944 10.8198 13.8908 9.81274 13.8908C8.77662 13.8908 8.05768 13.5908 7.54183 13.0741Z" fill="#0066CC" stroke="white" stroke-width="2"/>
<circle cx="9.76747" cy="10.0487" r="2.04872" fill="#0066CC"/>
<circle cx="29.705" cy="10.0487" r="2.04872" fill="#0066CC"/>
<path d="M21.8162 20.0487C21.8162 21.1802 20.899 22.0974 19.7675 22.0974C18.636 22.0974 17.7188 21.1802 17.7188 20.0487" stroke="#0066CC" stroke-width="2" stroke-linecap="round"/>
</svg>
