<svg width="60" height="61" viewBox="0 0 60 61" fill="none" xmlns="http://www.w3.org/2000/svg">
<rect y="0.679688" width="60" height="60" rx="4" fill="#0066CC"/>
<path d="M38.1892 24.8766L38.1776 28.2215H35.7324V16.9297H38.2007H38.4775H40.2538C41.707 16.9297 42.4452 17.3218 42.4568 18.1062V23.6194C42.4568 24.4037 41.7532 24.7844 40.3345 24.7844H38.2007V24.8766H38.1892ZM40 18.233H38.1661V23.4695H40V18.233Z" fill="white"/>
<path d="M12.0646 28.2321L12.0531 31.577H10V20.2852H12.0646H12.2953H13.7832C15.0058 20.2852 15.6171 20.6773 15.6286 21.4616V26.9749C15.6286 27.7592 15.0404 28.1398 13.8524 28.1398H12.0646V28.2321ZM13.5871 21.6H12.0531V26.8365H13.5871V21.6Z" fill="white"/>
<path d="M21.9493 28.1398H18.0508C16.909 28.1398 16.3323 27.7477 16.3323 26.9634L16.3438 24.6681C16.3438 23.8953 16.932 23.5032 18.12 23.4916H19.9078V21.6H18.3738L18.3623 22.6381H16.3553V21.4616C16.3553 20.6888 16.9551 20.3082 18.1546 20.3082L20.1616 20.2852C21.3496 20.2852 21.9493 20.6773 21.9493 21.4501V28.1398ZM18.3853 26.8249H19.9309L19.9194 24.8065H18.3853V26.8249Z" fill="white"/>
<path d="M26.4359 28.1398H24.6366C23.4486 28.1398 22.8604 27.7477 22.8604 26.9749V21.4616C22.8719 20.6773 23.4832 20.2852 24.7058 20.2852H26.1937H26.4474H28.489V30.412C28.489 31.1963 27.8892 31.5885 26.7012 31.5885H24.6597C23.4717 31.5885 22.8719 31.1963 22.8719 30.412V29.2471H24.9134V30.2852H26.4474V28.2321L26.4359 28.1398ZM24.9019 26.8249H26.4359V21.6H24.9019V26.8249Z" fill="white"/>
<path d="M34.8098 26.9634C34.7982 27.7477 34.1869 28.1283 32.9643 28.1283H30.9805C29.7809 28.1283 29.1812 27.7361 29.1812 26.9634V21.4501C29.1812 20.6658 29.7809 20.2852 30.9805 20.2852H33.022C34.21 20.2852 34.7982 20.6773 34.7982 21.4501V26.9634H34.8098ZM32.7798 21.6H31.2342V26.8365H32.7682L32.7798 21.6Z" fill="white"/>
<path d="M49.9885 18.163C49.9885 17.3787 49.2849 16.998 47.8663 16.998H45.421C43.9908 16.998 43.2757 17.3902 43.2757 18.163V28.2437H45.7209V24.795H47.5664V27.6786C47.5664 35.0603 41.6033 41.0234 34.2215 41.0234C29.9424 41.0234 26.1246 39.005 23.6794 35.8792L24.902 34.945L19.9885 31.6347L20.2077 38.6128L21.7763 37.3671C24.6598 41.058 29.1696 43.434 34.2215 43.434C42.9412 43.434 50.0001 36.3637 50.0001 27.6555L49.9885 18.163ZM47.5548 23.4802H45.7094V18.2899H47.5548V23.4802Z" fill="white"/>
</svg>
