<svg width="60" height="61" viewBox="0 0 60 61" fill="none" xmlns="http://www.w3.org/2000/svg">
<rect y="0.679932" width="60" height="60" rx="4" fill="#0066CC"/>
<path d="M42.5 30.6799L37.5 35.6799L35.7375 33.9174L37.7125 31.9299H31.175C30.75 35.8049 28.35 39.0799 25 40.7424C24.95 42.7924 23.3 44.4299 21.25 44.4299C19.175 44.4299 17.5 42.7549 17.5 40.6799C17.5 38.6049 19.175 36.9299 21.25 36.9299C22.4375 36.9299 23.475 37.4924 24.1625 38.3549C26.5375 37.0674 28.2375 34.7174 28.6375 31.9299H24.7625C24.25 33.3799 22.875 34.4299 21.25 34.4299C19.175 34.4299 17.5 32.7549 17.5 30.6799C17.5 28.6049 19.175 26.9299 21.25 26.9299C22.875 26.9299 24.25 27.9799 24.775 29.4299H28.65C28.25 26.6424 26.5375 24.3049 24.1625 23.0049C23.475 23.8674 22.4375 24.4299 21.25 24.4299C19.175 24.4299 17.5 22.7549 17.5 20.6799C17.5 18.6049 19.175 16.9299 21.25 16.9299C23.3 16.9299 24.95 18.5674 24.9875 20.6174C28.3375 22.2799 30.7375 25.5549 31.1625 29.4299H37.7L35.725 27.4424L37.5 25.6799L42.5 30.6799Z" fill="white"/>
</svg>
