<svg width="60" height="61" viewBox="0 0 60 61" fill="none" xmlns="http://www.w3.org/2000/svg">
<rect y="0.679688" width="60" height="60" rx="4" fill="#0B3EE3"/>
<path fill-rule="evenodd" clip-rule="evenodd" d="M12.0526 28.7189C12.626 28.764 13.2471 28.8128 13.8506 28.9939V28.9943C15.3679 29.4492 16.2785 30.5957 16.2785 32.2142C16.2785 34.4729 14.4403 36.1253 11.8951 36.1253C9.34983 36.1253 7.46143 34.5745 7.46143 32.2814H9.46759C9.46759 33.4279 10.4624 34.1863 11.9291 34.1863C13.3957 34.1863 14.2724 33.3939 14.2724 32.332C14.2724 31.5901 13.8175 31.1352 13.227 30.9159C12.7874 30.752 12.2288 30.7028 11.6412 30.651C11.0797 30.6016 10.4919 30.5498 9.95649 30.3934C8.40563 29.9381 7.56261 28.7409 7.56261 27.2237C7.56261 25.0487 9.35026 23.4473 11.8113 23.4473C14.2724 23.4473 16.0932 24.9475 16.0932 27.1225H14.07C14.019 26.0771 13.1428 25.3858 11.7939 25.3858C10.445 25.3858 9.58535 26.1447 9.58535 27.1225C9.58535 27.7631 9.95606 28.252 10.5967 28.488C11.0005 28.6363 11.5048 28.6759 12.0526 28.7189ZM27.776 35.9396H18.3854V23.6326H27.776V25.6052H20.3916V28.7745H24.5557V30.7471H20.3916V33.9674H27.776V35.9396ZM37.7558 32.3991L32.0404 23.6326H30.0343V35.9396H32.0404V27.1731L37.7558 35.9396H39.762V23.6326H37.7558V32.3991ZM42.425 23.6326H46.3872C49.9612 23.6326 52.54 26.3122 52.54 29.802C52.54 33.2919 49.9608 35.9387 46.3867 35.9387H45.4846V37.9113L42.5304 34.9528L45.4846 31.9974V33.967H46.3532C48.7806 33.967 50.5173 32.1968 50.5173 29.8029C50.5173 27.409 48.7806 25.6052 46.3532 25.6052H44.4482V31.8902L42.425 33.9376V23.6326Z" fill="white"/>
</svg>
