<svg width="24" height="24" viewBox="0 0 24 24" fill="none" xmlns="http://www.w3.org/2000/svg">
<g clip-path="url(#clip0_664_26301)">
<circle cx="12" cy="12" r="12" fill="#17324D"/>
<path fill-rule="evenodd" clip-rule="evenodd" d="M12 21.6C17.3019 21.6 21.6 17.3019 21.6 12C21.6 6.69806 17.3019 2.39999 12 2.39999C6.69806 2.39999 2.39999 6.69806 2.39999 12C2.39999 17.3019 6.69806 21.6 12 21.6Z" fill="#17324D"/>
<path d="M8.65488 8.06346L8.49278 8.06346L8.49278 8.22555L8.49278 10.1517L8.49278 10.3138L8.65488 10.3138L13.4918 10.3138L13.4918 12.5322C13.4918 13.5184 13.6587 14.3458 14.0028 15.0058L14.0027 15.0058L14.0039 15.0079C14.3585 15.6638 14.8432 16.1548 15.4584 16.4739C16.0685 16.7904 16.7637 16.9464 17.54 16.9464C18.3162 16.9464 19.0115 16.7904 19.6215 16.4739C20.237 16.1546 20.7159 15.6633 21.0584 15.0068C21.4151 14.3465 21.5882 13.5186 21.5882 12.5322L21.5882 9.27072C21.5882 8.60397 21.0477 8.06346 20.3809 8.06346L8.65488 8.06346ZM16.0853 14.1255L16.0854 14.1254L16.0835 14.1237C15.7392 13.7915 15.5492 13.2438 15.5492 12.4413L15.5492 10.3138L19.5308 10.3138L19.5308 12.4413C19.5308 13.2426 19.3353 13.7895 18.98 14.1219L18.98 14.1219L18.9764 14.1255C18.6228 14.4776 18.1498 14.6597 17.54 14.6597C16.9171 14.6597 16.4384 14.4771 16.0853 14.1255Z" fill="white" stroke="#17324D" stroke-width="0.324195"/>
<path d="M3.10146 15.1618L3.10141 15.1618L3.10499 15.1684C3.48842 15.8783 4.0197 16.4206 4.69989 16.7738C5.36418 17.1187 6.1136 17.2843 6.93544 17.2843C7.75728 17.2843 8.5067 17.1187 9.17099 16.7738C9.85189 16.4203 10.378 15.8768 10.7495 15.1651C11.1394 14.4415 11.3181 13.5547 11.3181 12.5322L11.3181 9.27072C11.3181 8.41735 10.6263 7.72556 9.77298 7.72556L4.09791 7.72556C3.24454 7.72556 2.55274 8.41735 2.55274 9.27072L2.55274 12.5322C2.55274 13.5539 2.72516 14.4393 3.10146 15.1618ZM5.72077 13.8862L5.72082 13.8862L5.71511 13.8806C5.46477 13.6389 5.28446 13.1996 5.28446 12.4413L5.28446 10.6517L8.58643 10.6517L8.58643 12.4413C8.58643 13.1958 8.40199 13.6329 8.14311 13.8753L8.13741 13.8807L8.13188 13.8862C7.85286 14.1644 7.47185 14.3218 6.93544 14.3218C6.38389 14.3218 5.99801 14.1626 5.72077 13.8862Z" fill="white" stroke="#17324D" stroke-width="0.999991"/>
<ellipse cx="6.91155" cy="12.2855" rx="1.07827" ry="1.07313" fill="white"/>
<ellipse cx="17.4049" cy="12.2855" rx="1.07827" ry="1.07313" fill="white"/>
</g>
<defs>
<clipPath id="clip0_664_26301">
<rect width="24" height="24" fill="white"/>
</clipPath>
</defs>
</svg>
