<svg width="32" height="32" viewBox="0 0 32 32" fill="none" xmlns="http://www.w3.org/2000/svg">
<path d="M21.0001 26.6663H5.33341C4.60008 26.6663 3.9723 26.4052 3.45008 25.883C2.92786 25.3608 2.66675 24.733 2.66675 23.9997V7.99967C2.66675 7.26634 2.92786 6.63856 3.45008 6.11634C3.9723 5.59412 4.60008 5.33301 5.33341 5.33301H26.6667C27.4001 5.33301 28.0279 5.59412 28.5501 6.11634C29.0723 6.63856 29.3334 7.26634 29.3334 7.99967V23.9997C29.3334 24.733 29.0723 25.3608 28.5501 25.883C28.0279 26.4052 27.4001 26.6663 26.6667 26.6663H24.8001L18.5334 20.3997C18.0667 20.7108 17.5612 20.9441 17.0167 21.0997C16.4723 21.2552 15.9112 21.333 15.3334 21.333C13.6667 21.333 12.2501 20.7497 11.0834 19.583C9.91675 18.4163 9.33341 16.9997 9.33341 15.333C9.33341 13.6663 9.91675 12.2497 11.0834 11.083C12.2501 9.91634 13.6667 9.33301 15.3334 9.33301C17.0001 9.33301 18.4167 9.91634 19.5834 11.083C20.7501 12.2497 21.3334 13.6663 21.3334 15.333C21.3334 15.933 21.2556 16.4997 21.1001 17.033C20.9445 17.5663 20.7112 18.0663 20.4001 18.533L25.8667 23.9997H26.6667V7.99967H5.33341V23.9997H18.3334L21.0001 26.6663ZM15.3334 18.6663C16.2667 18.6663 17.0556 18.3441 17.7001 17.6997C18.3445 17.0552 18.6667 16.2663 18.6667 15.333C18.6667 14.3997 18.3445 13.6108 17.7001 12.9663C17.0556 12.3219 16.2667 11.9997 15.3334 11.9997C14.4001 11.9997 13.6112 12.3219 12.9667 12.9663C12.3223 13.6108 12.0001 14.3997 12.0001 15.333C12.0001 16.2663 12.3223 17.0552 12.9667 17.6997C13.6112 18.3441 14.4001 18.6663 15.3334 18.6663Z" fill="#0073E6"/>
</svg>
