<svg width="32" height="32" viewBox="0 0 32 32" fill="none" xmlns="http://www.w3.org/2000/svg">
<path d="M14.6666 22.7337V9.60033C13.7555 9.06699 12.7888 8.66699 11.7666 8.40033C10.7444 8.13366 9.71103 8.00033 8.66659 8.00033C7.86659 8.00033 7.07214 8.0781 6.28325 8.23366C5.49436 8.38921 4.73325 8.62255 3.99992 8.93366V22.1337C4.7777 21.867 5.54992 21.667 6.31659 21.5337C7.08325 21.4003 7.86659 21.3337 8.66659 21.3337C9.71103 21.3337 10.7277 21.4503 11.7166 21.6837C12.7055 21.917 13.6888 22.267 14.6666 22.7337ZM15.9999 26.667C14.9333 25.8225 13.7777 25.167 12.5333 24.7003C11.2888 24.2337 9.99992 24.0003 8.66659 24.0003C7.73325 24.0003 6.81659 24.1225 5.91659 24.367C5.01659 24.6114 4.15547 24.9559 3.33325 25.4003C2.86659 25.6448 2.41659 25.6337 1.98325 25.367C1.54992 25.1003 1.33325 24.7114 1.33325 24.2003V8.13366C1.33325 7.88921 1.39436 7.65588 1.51659 7.43366C1.63881 7.21144 1.82214 7.04477 2.06659 6.93366C3.08881 6.40033 4.15547 6.00033 5.26659 5.73366C6.3777 5.46699 7.51103 5.33366 8.66659 5.33366C10.311 5.33366 11.711 5.52255 12.8666 5.90033C14.0221 6.2781 15.2666 6.85588 16.5999 7.63366C16.8444 7.76699 17.0277 7.92255 17.1499 8.10033C17.2721 8.2781 17.3333 8.51144 17.3333 8.80033V22.7337C18.311 22.267 19.2944 21.917 20.2833 21.6837C21.2721 21.4503 22.2888 21.3337 23.3333 21.3337C24.1333 21.3337 24.9166 21.4003 25.6833 21.5337C26.4499 21.667 27.2221 21.867 27.9999 22.1337V6.10033C28.3333 6.21144 28.661 6.33366 28.9833 6.46699C29.3055 6.60033 29.6221 6.75588 29.9333 6.93366C30.1777 7.04477 30.361 7.21144 30.4833 7.43366C30.6055 7.65588 30.6666 7.88921 30.6666 8.13366V24.2003C30.6666 24.7114 30.4499 25.1003 30.0166 25.367C29.5833 25.6337 29.1333 25.6448 28.6666 25.4003C27.8444 24.9559 26.9833 24.6114 26.0833 24.367C25.1833 24.1225 24.2666 24.0003 23.3333 24.0003C21.9999 24.0003 20.711 24.2337 19.4666 24.7003C18.2221 25.167 17.0666 25.8225 15.9999 26.667ZM20.6666 18.667V4.00033L24.6666 2.66699V17.3337L20.6666 18.667Z" fill="#0073E6"/>
</svg>
