<svg width="32" height="32" viewBox="0 0 32 32" fill="none" xmlns="http://www.w3.org/2000/svg">
<g clip-path="url(#clip0_79_7313)">
<path d="M5.33333 18.0333L8.7 14.6667L5.33333 11.3L1.96667 14.6667L5.33333 18.0333ZM23.3333 17.3333L26.6667 12L30 17.3333H23.3333ZM16 16C14.8889 16 13.9444 15.6111 13.1667 14.8333C12.3889 14.0556 12 13.1111 12 12C12 10.8667 12.3889 9.91667 13.1667 9.15C13.9444 8.38333 14.8889 8 16 8C17.1333 8 18.0833 8.38333 18.85 9.15C19.6167 9.91667 20 10.8667 20 12C20 13.1111 19.6167 14.0556 18.85 14.8333C18.0833 15.6111 17.1333 16 16 16ZM16 10.6667C15.6222 10.6667 15.3056 10.7944 15.05 11.05C14.7944 11.3056 14.6667 11.6222 14.6667 12C14.6667 12.3778 14.7944 12.6944 15.05 12.95C15.3056 13.2056 15.6222 13.3333 16 13.3333C16.3778 13.3333 16.6944 13.2056 16.95 12.95C17.2056 12.6944 17.3333 12.3778 17.3333 12C17.3333 11.6222 17.2056 11.3056 16.95 11.05C16.6944 10.7944 16.3778 10.6667 16 10.6667ZM0 24V21.9C0 20.9222 0.494444 20.1389 1.48333 19.55C2.47222 18.9611 3.75556 18.6667 5.33333 18.6667C5.62222 18.6667 5.9 18.6722 6.16667 18.6833C6.43333 18.6944 6.68889 18.7222 6.93333 18.7667C6.62222 19.2111 6.38889 19.6889 6.23333 20.2C6.07778 20.7111 6 21.2556 6 21.8333V24H0ZM8 24V21.8333C8 20.3889 8.73889 19.2222 10.2167 18.3333C11.6944 17.4444 13.6222 17 16 17C18.4 17 20.3333 17.4444 21.8 18.3333C23.2667 19.2222 24 20.3889 24 21.8333V24H8ZM26.6667 18.6667C28.2667 18.6667 29.5556 18.9611 30.5333 19.55C31.5111 20.1389 32 20.9222 32 21.9V24H26V21.8333C26 21.2556 25.9278 20.7111 25.7833 20.2C25.6389 19.6889 25.4222 19.2111 25.1333 18.7667C25.3778 18.7222 25.6278 18.6944 25.8833 18.6833C26.1389 18.6722 26.4 18.6667 26.6667 18.6667ZM16 19.6667C14.7333 19.6667 13.6 19.8333 12.6 20.1667C11.6 20.5 11.0111 20.8889 10.8333 21.3333H21.2C21 20.8889 20.4056 20.5 19.4167 20.1667C18.4278 19.8333 17.2889 19.6667 16 19.6667Z" fill="#0073E6"/>
</g>
<defs>
<clipPath id="clip0_79_7313">
<rect width="32" height="32" fill="white"/>
</clipPath>
</defs>
</svg>
